<svg viewBox="0 0 2137 275" xmlns="http://www.w3.org/2000/svg" xml:space="preserve" preserveAspectRatio="xMidYMin slice" height="100%" width="100%" fill="#FFFFFF" style="fill-rule: evenodd; clip-rule: evenodd; stroke-linejoin: round; stroke-miterlimit: 2;"><path d="M.428 134.238c31.719-29.611 74.322-47.703 121.223-47.703 56.247 0 106.259 26.073 138.827 66.731a93.92 93.92 0 0 1 16.937-23.087c16.773-16.927 40.034-27.374 65.825-27.374h32.744C404.75 42.238 466.336.498 537.821.498c65.511 0 122.635 35.125 153.969 87.501.694 1.16 1.38 2.337 2.054 3.529 13.483-3.264 27.573-4.993 42.073-4.993 56.246 0 106.258 26.073 138.826 66.731a93.92 93.92 0 0 1 16.937-23.087c16.773-16.927 40.033-27.374 65.824-27.374h32.744C1019.01 42.238 1080.6.498 1152.09.498c65.51 0 122.63 35.125 153.97 87.501 2.84 4.753 5.53 9.812 7.91 14.874.03.057.05.115.08.172 17.34 1.233 33.34 7.205 46.71 16.642 29.12-20.877 64.84-33.152 103.47-33.152 56.25 0 106.26 26.073 138.83 66.731a94.02 94.02 0 0 1 16.93-23.087c16.78-16.927 40.04-27.374 65.83-27.374h32.74C1747.33 42.238 1808.92.498 1880.4.498c65.51 0 122.64 35.125 153.97 87.501 2.85 4.753 5.54 9.812 7.91 14.874l.09.172c23.09 1.642 43.8 11.691 59.11 27.136 16.93 16.93 27.37 40.193 27.37 65.984 0 11.108 2.18 21.758 4.2 31.637 3.96 19.322 7.3 35.683-7.45 46.696H.428v-140.26Z"></path></svg>